<?xml version="1.0" encoding="iso-8859-1"?>
<!-- Generator: Adobe Illustrator 16.0.4, SVG Export Plug-In . SVG Version: 6.00 Build 0)  -->
<!DOCTYPE svg PUBLIC "-//W3C//DTD SVG 1.1//EN" "http://www.w3.org/Graphics/SVG/1.1/DTD/svg11.dtd">
<svg version="1.1" id="Layer_1" xmlns="http://www.w3.org/2000/svg" xmlns:xlink="http://www.w3.org/1999/xlink" x="0px" y="0px"
	 width="226.771px" height="226.772px" viewBox="0 0 226.771 226.772" style="enable-background:new 0 0 226.771 226.772;"
	 xml:space="preserve">
<rect style="fill:#CF0039;" width="226.771" height="226.772"/>
<g>
	<path style="fill:#FFFFFF;" d="M140.867,165.862l-8.154-23.132H94.753l-8.156,23.132H64.355l39.74-103.792h20.165l39.44,103.792
		H140.867z M118.922,104.179c-2.076-6.08-4.151-12.306-5.19-16.162c-1.037,3.856-3.112,10.083-5.189,16.162l-6.672,18.832h23.725
		L118.922,104.179z"/>
</g>
<path style="fill:#FFFFFF;" d="M60.058,116.836c-0.489,1.455-2.065,2.238-3.521,1.749l-28.946-9.714
	c-1.455-0.488-2.24-2.064-1.751-3.52l2.407-7.172c0.489-1.455,2.065-2.238,3.521-1.75l28.945,9.714
	c1.457,0.489,2.241,2.063,1.753,3.519L60.058,116.836z"/>
<path style="fill:#FFFFFF;" d="M58.478,139.562c0.488,1.455-0.297,3.032-1.754,3.519l-20.618,7.319
	c-1.457,0.486-3.03-0.298-3.519-1.754l-2.402-7.173c-0.487-1.455,0.298-3.032,1.755-3.518l20.618-7.32
	c1.456-0.486,3.03,0.299,3.518,1.754L58.478,139.562z"/>
<path style="fill:#FFFFFF;" d="M52.803,73.373c-1.214,0.938-1.438,2.685-0.498,3.9L65.37,94.822c0.94,1.214,2.685,1.438,3.9,0.499
	l5.984-4.625c1.215-0.94,1.439-2.685,0.5-3.9l-13.067-17.55c-0.938-1.213-2.684-1.437-3.9-0.498L52.803,73.373z"/>
<path style="fill:#FFFFFF;" d="M167.79,116.836c0.489,1.455,2.065,2.238,3.521,1.749l28.947-9.714
	c1.454-0.488,2.238-2.064,1.75-3.52l-2.407-7.172c-0.488-1.455-2.064-2.238-3.521-1.75l-28.945,9.714
	c-1.456,0.489-2.241,2.063-1.753,3.519L167.79,116.836z"/>
<path style="fill:#FFFFFF;" d="M169.371,139.562c-0.489,1.455,0.297,3.032,1.755,3.519l20.617,7.319
	c1.458,0.486,3.032-0.298,3.519-1.754l2.401-7.173c0.489-1.455-0.297-3.032-1.754-3.518l-20.617-7.32
	c-1.456-0.486-3.032,0.299-3.519,1.754L169.371,139.562z"/>
<path style="fill:#FFFFFF;" d="M175.046,73.373c1.214,0.938,1.438,2.685,0.497,3.9l-13.066,17.549
	c-0.94,1.214-2.684,1.438-3.899,0.499l-5.985-4.625c-1.214-0.94-1.438-2.685-0.498-3.9l13.065-17.55
	c0.939-1.213,2.686-1.437,3.9-0.498L175.046,73.373z"/>
</svg>
